<svg xmlns="http://www.w3.org/2000/svg" viewBox="0 0 455 271" width="455" height="271"><defs></defs><g transform="matrix(1,0,0,1,-747.964705768,-404.326606966)">
<g>
	<g>
		<g transform="matrix(1,0,0,1,-62.841866239,85.612154891)">
			<path d="M1104.579659,587.566459C1103.995801,587.318596 1107.533248,587.209795 1108.973248,581.649795 C1110.131722,577.176797 1113.229659,541.134687 1109.142159,537.297187 C1105.054659,533.459687 1103.595284,553.594062 1073.992159,576.047187 C1043.612225,599.0895 992.701413,550.822187 1025.826413,520.447187 C1057.828359,491.102005 1067.431726,497.370022 1065.318192,488.09923 C1063.204659,478.828437 1025.826413,509.047187 1007.192159,521.247187 C1002.817159,523.772187 992.135154,526.869078 987.677115,526.854552 C947.187858,526.722838 906.697928,526.800475 866.208243,526.760802 C864.325003,526.75891 862.187522,527.486083 860.435721,525.571349 C860.470603,525.013121 860.427787,524.35382 860.562522,523.733153 C872.817191,467.274596 902.42208,422.776458 951.690757,391.941558 C976.084403,376.674743 1002.753074,367.831206 1031.296653,364.548766 C1038.398703,363.732024 1039.34841,364.624541 1039.404929,372.001036 C1039.471335,380.66516 1039.467673,389.329802 1039.486655,397.994231 C1039.51644,411.636199 1039.515708,411.441619 1053.275535,411.585784 C1058.012961,411.635375 1059.248557,409.950347 1059.154868,405.500212 C1058.902305,393.508239 1059.124839,381.506987 1058.971335,369.511809 C1058.922141,365.666625 1060.310202,363.986724 1064.237265,364.23535 C1068.884299,364.52954 1073.520163,364.683654 1078.168113,365.237059 C1110.388205,369.073119 1139.774497,380.279113 1166.504111,398.60974 C1188.793845,413.895598 1207.053611,433.083617 1221.805198,455.655761 C1223.507163,458.259887 1224.807212,459.65393 1228.009665,457.386229 C1238.20449,450.167022 1248.543784,443.148558 1258.921958,436.193755 C1261.68862,434.33969 1261.798545,432.709929 1259.870505,430.142485 C1256.070823,425.082488 1252.724631,419.672759 1248.786155,414.730162 C1246.804343,412.242919 1246.749717,410.790099 1248.95687,408.482573 C1254.365195,402.828246 1259.390097,396.808043 1264.773581,391.128783 C1266.874106,388.912871 1266.806907,387.472136 1264.668052,385.366515 C1257.782554,378.588286 1251.06832,371.636199 1244.284446,364.754668 C1239.921347,360.328856 1240.008689,360.423339 1235.406943,364.947661 C1229.631125,370.626372 1224.674277,377.13745 1218.155234,382.426238 C1203.392539,369.710448 1188.018515,358.346282 1171.094443,349.220794 C1131.717061,327.988468 1090.428288,318.714452 1047.301571,318.714452 C926.891394,318.714452 800.279366,424.647693 811.501924,582.109058 C811.732404,585.342876 814.45704,588.26367 817.904961,588.680679 C849.808524,592.539253 1022.647772,587.566459 1104.579659,587.566459 Z" fill="#f59e0b"/>
		</g>
		<g transform="matrix(1,0,0,1,-62.841866239,85.612154891)">
			<path d="M1069.140794,567.153395C1094.643348,546.684645 1149.156038,464.728755 1145.562288,461.291255 C1141.968538,457.853755 1060.894036,500.598478 1035.00179,523.735311 C1009.109544,546.872145 1043.638239,587.622145 1069.140794,567.153395 Z" fill="#a3a3a3"/>
		</g>
		<g transform="matrix(1,0,0,1,-62.841866239,85.612154891)">
			<path d="M1098.588584,381.11809C1105.324912,383.205919 1111.657676,385.201647 1117.995078,387.18239 C1120.958762,388.10869 1121.951255,389.789354 1120.632773,392.840593 C1117.340659,400.459154 1114.116294,408.109545 1111.031577,415.813921 C1109.79061,418.913225 1108.063376,419.732958 1104.851889,418.666796 C1094.256308,415.149218 1083.402121,412.655474 1072.288962,411.494493 C1068.81301,411.131365 1067.780112,409.621721 1068.193381,406.255999 C1069.18563,398.17531 1070.032493,390.073137 1070.736533,381.962145 C1071.100242,377.77141 1073.258567,376.532213 1077.089072,377.228014 C1084.119285,378.505053 1091.154075,379.757311 1098.588584,381.11809 C1098.588584,381.11809 1098.588584,381.11809 1098.588584,381.11809 Z" fill="#a3a3a3"/>
		</g>
		<g transform="matrix(1,0,0,1,-62.841866239,85.612154891)">
			<path d="M935.986106,418.2166C944.680808,410.916674 953.679648,404.715929 963.351645,399.442614 C966.418906,397.770403 968.106772,398.150133 969.638327,401.222826 C973.34249,408.654467 977.133048,416.045061 981.020835,423.382219 C982.625296,426.410204 981.805747,428.245562 978.96572,429.871355 C969.703238,435.173784 961.165397,441.4937 953.473563,448.89702 C950.7452,451.523027 948.583152,451.491747 945.926322,448.734636 C940.509787,443.113543 934.958518,437.613237 929.279014,432.258074 C926.141074,429.299303 926.018546,426.810839 929.373374,424.064836 C931.556876,422.277605 933.609977,420.331041 935.986106,418.2166 C935.986106,418.2166 935.986106,418.2166 935.986106,418.2166 Z" fill="#a3a3a3"/>
		</g>
		<g transform="matrix(1,0,0,1,-62.841866239,85.612154891)">
			<path d="M976.890342,394.142015C982.606925,388.534685 990.074393,386.992388 996.97866,384.42 C1004.768058,381.51787 1012.923636,379.782061 1021.122153,378.265368 C1024.866355,377.572741 1026.329062,378.79738 1026.789267,382.345415 C1027.858298,390.587297 1028.931113,398.834917 1030.324118,407.02553 C1030.88613,410.330278 1029.73989,411.630754 1026.710654,412.1299 C1015.497092,413.977648 1004.65615,417.087938 994.34365,421.924395 C992.294761,422.885332 990.571219,423.056017 989.392142,420.576677 C985.253257,411.873461 981.048392,403.201616 976.890342,394.142015 C976.890342,394.142015 976.890342,394.142015 976.890342,394.142015 Z" fill="#a3a3a3"/>
		</g>
		<g transform="matrix(1,0,0,1,-62.841866239,85.612154891)">
			<path d="M1158.866294,407.986315C1163.020896,411.094042 1166.854758,414.034014 1170.737326,416.90822 C1173.319053,418.819384 1173.450889,420.735704 1171.274558,423.134569 C1165.566794,429.426165 1159.935996,435.788622 1154.343039,442.182787 C1152.24227,444.584429 1150.310935,444.502642 1147.941306,442.523058 C1139.848655,435.762377 1130.930625,430.231981 1121.511313,425.548204 C1118.244407,423.923754 1117.602317,421.968767 1119.07302,418.756212 C1122.329429,411.643206 1125.579917,404.519457 1128.523703,397.274523 C1130.208091,393.129076 1132.367087,392.584826 1136.197104,394.623949 C1143.847739,398.697161 1151.434104,402.849443 1158.866294,407.986315 C1158.866294,407.986315 1158.866294,407.986315 1158.866294,407.986315 Z" fill="#a3a3a3"/>
		</g>
		<g transform="matrix(1,0,0,1,-62.841866239,85.612154891)">
			<path d="M922.685935,438.241076C928.824057,444.113024 934.653617,449.806261 940.636191,455.33391 C943.113059,457.622362 943.184592,459.330675 940.891074,461.966906 C935.208884,468.498156 930.244895,475.602098 926.315268,483.339159 C924.530448,486.85338 922.554648,487.860094 918.85134,485.853624 C911.400382,481.816576 903.799826,478.050585 896.202079,474.291857 C893.117759,472.765978 892.591239,470.89702 894.331046,467.93004 C900.656211,457.14348 907.86428,447.005816 915.948813,437.465685 C918.566977,434.376055 920.442283,435.823168 922.685935,438.241076 C922.685935,438.241076 922.685935,438.241076 922.685935,438.241076 Z" fill="#a3a3a3"/>
		</g>
		<g transform="matrix(1,0,0,1,-62.841866239,85.612154891)">
			<path d="M1173.521079,433.779589C1181.977134,425.229052 1180.424888,424.856371 1188.794028,433.460955 C1195.551658,440.408709 1201.249595,448.200914 1206.958579,455.998034 C1208.941306,458.706041 1209.085227,460.381639 1205.857383,462.295519 C1198.557456,466.623888 1191.407981,471.216845 1184.326499,475.89757 C1181.470847,477.785082 1179.607627,477.412401 1177.707602,474.63756 C1172.707785,467.335741 1166.951194,460.640673 1160.639182,454.448107 C1158.36605,452.217943 1158.354514,450.301073 1160.457236,448.039873 C1164.766013,443.406511 1169.001792,438.705278 1173.521079,433.779589 C1173.521079,433.779589 1173.521079,433.779589 1173.521079,433.779589 Z" fill="#a3a3a3"/>
		</g>
		<g transform="matrix(1,0,0,1,-62.841866239,85.612154891)">
			<path d="M914.329337,510.487474C914.329337,510.487474 914.329337,510.487474 914.329337,510.487474 C914.329337,510.487474 916.599204,503.437487 918.066459,500.287889 C919.509971,497.189074 918.831351,495.297899 915.827567,493.879686 C907.703208,490.044054 899.601981,486.158861 891.516105,482.242662 C889.067283,481.056627 887.517142,481.512743 886.436301,484.15465 C883.031516,492.476793 879.873801,500.881273 877.180838,509.464281 C876.176597,512.664965 877.141868,514.086718 880.500052,514.424059 C887.166925,515.093843 902.751662,515.167572 908.203558,515.172628 C908.954331,515.173324 909.512948,515.172718 909.829659,515.172187 C910.011798,515.171881 912.517159,515.173519 914.329337,510.487474 Z" fill="#a3a3a3"/>
		</g>
	</g>
</g></g></svg>